# xmcd CD database file
#
# Track frame offsets:
#	150
#	11815
#	24835
#	37780
#	52005
#	68457
#	79595
#	92575
#	105470
#	115095
#	126877
#	140985
#
# Disc length: 2115 seconds
#
# Revision: 0
# Processed by: cddbd v1.5.2PL0 Copyright (c) Steve Scherf et al.
# Submitted via: CDex 1.70beta2
#
DISCID=9008410c
DTITLE=Jet Stream - Jet Stream 5 
DYEAR=1900
DGENRE=Lounge
TTITLE0=ミスター・ロンリー
TTITLE1=涙のカノン
TTITLE2=小雨降る径
TTITLE3=ローマの秋
TTITLE4=落ち葉のコンチェルト
TTITLE5=センチになって
TTITLE6=シェルブールの雨傘
TTITLE7=雨にぬれても
TTITLE8=さらば夏の日
TTITLE9=哀しみのトリスターナ
TTITLE10=ラブレター
TTITLE11=夢幻旅行
EXTD=
EXTT0=
EXTT1=
EXTT2=
EXTT3=
EXTT4=
EXTT5=
EXTT6=
EXTT7=
EXTT8=
EXTT9=
EXTT10=
EXTT11=
PLAYORDER=
